<?xml version="1.0" encoding="UTF-8"?>
<svg width="448px" height="434px" viewBox="0 0 448 434" version="1.1" xmlns="http://www.w3.org/2000/svg" xmlns:xlink="http://www.w3.org/1999/xlink">
    <!-- Generator: Sketch 56.3 (81716) - https://sketch.com -->
    <title>#3 Description</title>
    <desc>Created with Sketch.</desc>
    <defs>
        <linearGradient x1="73.9164322%" y1="24.01298%" x2="50.5928184%" y2="77.3126708%" id="linearGradient-1">
            <stop stop-color="#1D2538" offset="0%"></stop>
            <stop stop-color="#192030" offset="100%"></stop>
        </linearGradient>
    </defs>
    <g id="New-landing" stroke="none" stroke-width="1" fill="none" fill-rule="evenodd">
        <g id="Landing" transform="translate(-499.000000, -2131.000000)">
            <g id="Group-8" transform="translate(257.000000, 1887.000000)">
                <g id="Group-7">
                    <g id="#3-Description" transform="translate(167.000000, 244.000000)">
                        <circle id="Oval-Copy-2" fill="#D8D8D8" style="mix-blend-mode: overlay;" cx="296.5" cy="149.5" r="149.5"></circle>
                        <text id="Psychometric" font-family="Roboto-Medium, Roboto" font-size="24" font-weight="400" line-spacing="58" letter-spacing="-0.923076923" fill="#FFFFFF">
                            <tspan x="234.704477" y="73">Psychometric</tspan>
                        </text>
                        <path d="M373.5,434 C456.06657,434 523,367.06657 523,284.5 C523,242.935855 506.038186,205.333354 478.658865,178.236804 C451.649563,151.50645 414.502425,135 373.5,135 C290.93343,135 224,201.93343 224,284.5 C224,367.06657 290.93343,434 373.5,434 Z" id="Oval-Copy" fill="#D8D8D8" style="mix-blend-mode: overlay;"></path>
                        <text id="Based-on-Games" font-family="Roboto-Medium, Roboto" font-size="24" font-weight="400" line-spacing="28" letter-spacing="-0.923076923" fill="#FFFFFF">
                            <tspan x="399.729417" y="316">Based on </tspan>
                            <tspan x="410.573317" y="344">Games</tspan>
                        </text>
                        <path d="M224.5,434 C307.06657,434 374,367.06657 374,284.5 C374,240.576444 355.057837,201.077068 324.896751,173.725111 C298.361666,149.661439 263.143014,135 224.5,135 C141.93343,135 75,201.93343 75,284.5 C75,367.06657 141.93343,434 224.5,434 Z" id="Oval" fill="#D8D8D8" style="mix-blend-mode: overlay;"></path>
                        <text id="Emotions-AI" font-family="Roboto-Medium, Roboto" font-size="24" font-weight="400" line-spacing="58" letter-spacing="-0.923076923" fill="#FFFFFF">
                            <tspan x="95.9265325" y="301">Emotions AI</tspan>
                        </text>
                        <g id="Symbol-White-Copy-3" transform="translate(268.000000, 208.000000)" fill="#FFFFFF" fill-rule="nonzero">
                            <g id="Symbol-White-Copy-2">
                                <g id="Symbol-White-Copy">
                                    <path d="M55,14.6017699 L55,40.3982301 C55,48.4778761 48.4778761,55 40.3982301,55 L14.6017699,55 C6.52212389,55 0,48.4778761 0,40.3982301 L0,14.6017699 C0,6.52212389 6.52212389,0 14.6017699,0 L40.3982301,0 C48.4778761,0 55,6.52212389 55,14.6017699 Z M34.7522124,28.1327434 L43.1238938,28.1327434 C46.8230088,28.1327434 49.840708,25.1150442 49.840708,21.4159292 L49.840708,14.0176991 C49.840708,8.66371681 45.460177,4.28318584 40.1061947,4.28318584 L32.7079646,4.28318584 C29.0088496,4.28318584 25.9911504,7.30088496 25.9911504,11 L25.9911504,20.2477876 C25.9911504,23.9469027 22.9734513,26.9646018 19.2743363,26.9646018 L10.9026549,26.9646018 C7.20353982,26.9646018 4.18584071,29.9823009 4.18584071,33.6814159 L4.18584071,41.079646 C4.18584071,46.4336283 8.56637168,50.8141593 13.920354,50.8141593 L21.3185841,50.8141593 C25.0176991,50.8141593 28.0353982,47.7964602 28.0353982,44.0973451 L28.0353982,34.8495575 C28.0353982,31.1504425 31.0530973,28.1327434 34.7522124,28.1327434 Z M14.1150442,20.9292035 C16.9106803,20.9292035 19.1769912,18.6628927 19.1769912,15.8672566 C19.1769912,13.0716206 16.9106803,10.8053097 14.1150442,10.8053097 C11.3194082,10.8053097 9.05309735,13.0716206 9.05309735,15.8672566 C9.05309735,18.6628927 11.3194082,20.9292035 14.1150442,20.9292035 Z M39.1327434,44.8761062 C41.9283794,44.8761062 44.1946903,42.6097954 44.1946903,39.8141593 C44.1946903,37.0185232 41.9283794,34.7522124 39.1327434,34.7522124 C36.3371073,34.7522124 34.0707965,37.0185232 34.0707965,39.8141593 C34.0707965,42.6097954 36.3371073,44.8761062 39.1327434,44.8761062 Z" id="Combined-Shape"></path>
                                </g>
                            </g>
                        </g>
                    </g>
                </g>
            </g>
        </g>
    </g>
</svg>